<?xml version="1.0" encoding="utf-8"?>
<svg version="1.1" xmlns:xlink="http://www.w3.org/1999/xlink" width="22px" height="22px" xmlns="http://www.w3.org/2000/svg">
  <g transform="matrix(1 0 0 1 -318 -25 )">
    <path d="M 22 11  C 22 4.95  17.05 0  11 0  C 4.95 0  0 4.95  0 11  C 0 17.05  4.95 22  11 22  C 17.05 22  22 17.05  22 11  Z M 16.5 11  C 16.5 11.66  16.06 12.1  15.4 12.1  L 6.6 12.1  C 5.94 12.1  5.5 11.66  5.5 11  C 5.5 10.34  5.94 9.9  6.6 9.9  L 15.4 9.9  C 16.06 9.9  16.5 10.34  16.5 11  Z " fill-rule="nonzero" fill="#b1e8dd" stroke="none" transform="matrix(1 0 0 1 318 25 )" />
  </g>
</svg>