<?xml version="1.0" encoding="utf-8"?>
<svg version="1.1" xmlns:xlink="http://www.w3.org/1999/xlink" width="22px" height="22px" xmlns="http://www.w3.org/2000/svg">
  <g transform="matrix(1 0 0 1 -205 -25 )">
    <path d="M 21.37653125 11  C 21.37653125 5.282328125  16.730796875 0.6472578125  11 0.6472578125  C 5.269203125 0.6472578125  0.62346875 5.282328125  0.62346875 11  C 0.62346875 16.717671875  5.269203125 21.3527421875  11 21.3527421875  C 16.730796875 21.3527421875  21.37653125 16.717671875  21.37653125 11  Z M 17.3198984375 11  C 17.3198984375 11.603234375  16.8308515625 12.09228125  16.2276171875 12.09228125  L 12.0922578125 12.09228125  L 12.0922578125 16.227640625  C 12.0922578125 16.830875  11.6032109375 17.319921875  10.9999765625 17.319921875  C 10.3967421875 17.319921875  9.9076953125 16.830875  9.9076953125 16.227640625  L 9.9076953125 12.09228125  L 5.7723359375 12.09228125  C 5.1691015625 12.09228125  4.6800546875 11.603234375  4.6800546875 11  C 4.6800546875 10.396765625  5.1691015625 9.90771875  5.7723359375 9.90771875  L 9.9076953125 9.90771875  L 9.9076953125 5.772359375  C 9.9076953125 5.169125  10.3967421875 4.680078125  10.9999765625 4.680078125  C 11.6032109375 4.680078125  12.0922578125 5.169125  12.0922578125 5.772359375  L 12.0922578125 9.90771875  L 16.2276171875 9.90771875  C 16.8308515625 9.90771875  17.3198984375 10.396765625  17.3198984375 11  Z " fill-rule="nonzero" fill="#b1e8dd" stroke="none" transform="matrix(1 0 0 1 205 25 )" />
  </g>
</svg>