<svg t="1607384783100" class="icon" viewBox="0 0 1024 1024" version="1.1" xmlns="http://www.w3.org/2000/svg" p-id="559" width="50" height="50"><path d="M771.298389 442.359004c-12.14407 0-22.001757-9.820205-22.001756-22.001757 0-109.146706-88.794143-197.940849-197.94085-197.940849H463.386237c-109.146706 0-197.940849 88.794143-197.940849 197.940849 0 12.14407-9.820205 22.001757-22.001757 22.001757s-22.001757-9.820205-22.001757-22.001757c0-133.397365 108.546999-241.944363 241.944363-241.944363H551.355783c133.397365 0 241.944363 108.546999 241.944363 241.944363 0 12.181552-9.857687 22.001757-22.001757 22.001757zM661.327086 816.276428H353.414934c-81.410249 0-131.97306-42.129429-131.97306-109.971304 0-12.14407 9.820205-22.001757 22.001757-22.001757s22.001757 9.820205 22.001757 22.001757c0 54.535871 47.826647 65.967789 87.969546 65.96779h307.912152c40.142899 0 87.969546-11.431918 87.969547-65.96779 0-12.14407 9.820205-22.001757 22.001756-22.001757s22.001757 9.820205 22.001757 22.001757c0 67.804392-50.562811 109.971303-131.97306 109.971304z" fill="#DA667A" p-id="560"></path><path d="M617.361054 596.333821c-3.373353 0-6.746706-0.787116-9.820205-2.323865l-83.321815-41.679649H221.441874c-36.394729 0-65.967789-29.610542-65.967789-65.967789s29.610542-65.967789 65.967789-65.967789h571.858272c36.394729 0 65.967789 29.610542 65.96779 65.967789s-29.610542 65.967789-65.96779 65.967789h-82.797071l-83.321816 41.679649c-3.073499 1.53675-6.446852 2.323865-9.820205 2.323865zM221.441874 464.360761c-12.14407 0-22.001757 9.857687-22.001757 22.001757s9.857687 22.001757 22.001757 22.001757h307.912152c3.410835 0 6.784187 0.787116 9.820205 2.323866l78.149341 39.055929 78.149342-39.055929c3.036018-1.53675 6.40937-2.323865 9.820205-2.323866h87.969546c12.14407 0 22.001757-9.857687 22.001757-22.001757s-9.857687-22.001757-22.001757-22.001757H221.441874z" fill="#342A20" p-id="561"></path><path d="M760.316252 706.305124H254.425769c-53.63631 0-98.989165-45.315373-98.989166-98.989165s45.315373-98.989165 98.989166-98.989165c12.14407 0 22.001757 9.820205 22.001757 22.001757 0 12.14407-9.820205 22.001757-22.001757 22.001756-29.79795 0-54.985652 25.187701-54.985652 54.985652S224.627818 662.301611 254.425769 662.301611h505.853001c29.79795 0 54.985652-25.187701 54.985652-54.985652s-25.187701-54.985652-54.985652-54.985652c-12.14407 0-22.001757-9.820205-22.001757-22.001756 0-12.14407 9.820205-22.001757 22.001757-22.001757 53.63631 0 98.989165 45.315373 98.989166 98.989165s-45.315373 98.989165-98.951684 98.989165zM397.418448 398.392972c-5.622255 0-11.24451-2.136457-15.554905-6.446852L337.860029 347.942606c-8.583309-8.583309-8.583309-22.526501 0-31.10981s22.526501-8.583309 31.10981 0l44.003514 44.003514c8.583309 8.583309 8.583309 22.526501 0 31.10981-4.310395 4.272914-9.93265 6.446852-15.554905 6.446852zM485.387994 398.392972c-5.622255 0-11.24451-2.136457-15.554905-6.446852-8.583309-8.583309-8.583309-22.526501 0-31.10981l58.508931-58.471449c8.583309-8.583309 22.526501-8.583309 31.10981 0s8.583309 22.526501 0 31.10981l-58.508931 58.471449c-4.310395 4.272914-9.93265 6.446852-15.554905 6.446852zM639.325329 398.392972c-12.14407 0-22.001757-9.820205-22.001757-22.001757v-58.471449c0-12.14407 9.820205-22.001757 22.001757-22.001757 12.14407 0 22.001757 9.820205 22.001757 22.001757v58.471449c0 12.14407-9.820205 22.001757-22.001757 22.001757z" fill="#342A20" p-id="562"></path></svg>