<svg t="1607385478169" class="icon" viewBox="0 0 1024 1024" version="1.1" xmlns="http://www.w3.org/2000/svg" p-id="1007" width="50" height="50"><path d="M657.79712 370.24256c-22.92224-10.61888-44.12928-33.21344-66.53952-57.12896-25.6-27.32032-54.64064-58.30144-77.4144-58.30144-21.8624 0-50.05824 30.35648-74.92608 57.1648-22.26688 23.95136-43.28448 46.6176-66.24768 56.98048-128.75776 58.30144-201.63584 97.63328-201.63584 228.6592 0 0.57344 0.01536 1.13152 0.01536 1.69984 136.77056 89.93792 310.28736 93.5168 472.35584 74.06592 80.12288-10.8288 153.84064-42.15296 212.82816-91.68896-5.53984-116.44928-73.32352-153.45664-198.43584-211.45088zM455.86944 421.47328c-26.88 26.88-52.07552 58.92096-54.34368 68.992a21.92896 21.92896 0 0 1-21.93408 21.23776 21.9392 21.9392 0 0 1-21.96992-21.96992c0-27.93984 42.07616-74.22976 67.2-99.3536a21.9648 21.9648 0 0 1 31.0528 0 21.95456 21.95456 0 0 1-0.00512 31.09376z m79.94368 93.41952a21.9392 21.9392 0 0 1-21.97504 21.96992 21.9648 21.9648 0 0 1-21.96992-21.96992V433.15712a21.9648 21.9648 0 1 1 43.94496 0v81.73568z m112.5376-3.18464a21.9648 21.9648 0 0 1-21.97504-21.23776c-2.26816-10.10688-27.46368-42.112-54.34368-68.992a22.016 22.016 0 0 1 0-31.09376 22.01088 22.01088 0 0 1 31.08864 0c25.08288 25.12384 67.2 71.40864 67.2 99.3536a21.9648 21.9648 0 0 1-21.96992 21.96992z" fill="#FFFFFF" p-id="1008"></path><path d="M496.15872 690.64704h-0.01536c-134.71232-0.00512-242.432-27.776-329.30816-84.91008a7.66464 7.66464 0 0 1-3.46112-6.37952l-0.01536-1.73568c0-135.7056 74.49088-176.04096 206.14656-235.65312 21.46304-9.69216 41.89184-31.66208 63.5136-54.92224 27.45856-29.59872 55.57248-59.90912 80.82432-59.90912 26.12736 0 55.05024 30.8736 83.0208 60.72832 21.88288 23.3472 42.55744 45.39904 64.16384 55.40864 125.7216 58.28608 197.13024 97.152 202.88 218.06592 0.11264 2.39616-0.896 4.70528-2.72896 6.2464-59.56096 50.00704-134.50752 82.304-216.73984 93.4144-54.12864 6.48704-102.59968 9.64608-148.28032 9.64608z m-317.44-95.49824c83.70688 53.90848 187.59168 80.128 317.41952 80.13312h0.01536c45.06624 0 92.93312-3.11296 146.33472-9.5232 77.88544-10.52672 149.0176-40.76032 205.87008-87.5008-6.62528-109.27616-71.40352-144.31232-193.79712-201.05216-24.31488-11.264-45.9776-34.37568-68.9152-58.84416-23.3216-24.89344-52.34688-55.87456-71.808-55.87456-18.54464 0-46.68416 30.336-69.29408 54.7072-22.9888 24.7296-44.4416 47.80032-68.71552 58.76224-128.68096 58.2656-196.22912 94.66368-197.10976 219.19232z m335.11936-50.60608a29.69088 29.69088 0 0 1-29.65504-29.64992V433.15712c0-16.34816 13.30176-29.65504 29.65504-29.65504s29.65504 13.30176 29.65504 29.65504v81.7408a29.68064 29.68064 0 0 1-29.65504 29.6448z m0-125.68064a14.3104 14.3104 0 0 0-14.29504 14.29504v81.7408c0 7.87968 6.41024 14.28992 14.29504 14.28992s14.29504-6.41024 14.29504-14.28992V433.15712a14.31552 14.31552 0 0 0-14.29504-14.29504z m134.51264 100.52096a29.4912 29.4912 0 0 1-29.60896-27.74528c-2.3808-7.54176-23.65952-36.25472-52.14208-64.73728-11.54048-11.54048-11.5456-30.35648-0.01024-41.93792 5.6064-5.6064 13.05088-8.68864 20.97152-8.68864s15.37024 3.07712 20.98176 8.66304c31.6928 31.744 69.45792 75.67872 69.45792 104.79616a29.68064 29.68064 0 0 1-29.64992 29.64992z m-60.78976-127.74912c-3.81952 0-7.40352 1.4848-10.10176 4.17792a14.35136 14.35136 0 0 0 0 20.23424c25.40032 25.3952 53.44256 59.55072 56.41216 72.73984 0.10752 0.47616 0.16384 0.95744 0.1792 1.44384a14.208 14.208 0 0 0 14.30016 13.7984 14.30528 14.30528 0 0 0 14.28992-14.29504c0-18.35008-23.67488-52.58752-64.95744-93.9264a14.26944 14.26944 0 0 0-10.12224-4.1728z m-207.9744 127.74912a29.68576 29.68576 0 0 1-29.64992-29.64992c0-29.20448 37.76512-73.10336 69.44768-104.7808 5.59616-5.59616 13.03552-8.6784 20.95616-8.6784s15.36 3.08224 20.95616 8.6784a29.39904 29.39904 0 0 1 8.704 20.93056 29.50656 29.50656 0 0 1-8.704 21.02272c-28.47232 28.4672-49.75104 57.18528-52.1472 64.73728a29.4656 29.4656 0 0 1-29.56288 27.74016z m60.75392-127.74912a14.1824 14.1824 0 0 0-10.09664 4.17792c-41.27744 41.27744-64.9472 75.50976-64.9472 93.92128a14.3104 14.3104 0 0 0 14.28992 14.29504 14.18752 14.18752 0 0 0 14.2592-13.7984c0.01536-0.4864 0.0768-0.9728 0.18432-1.44896 2.97472-13.19936 31.01696-47.34464 56.40704-72.73472 2.7136-2.71872 4.20864-6.31808 4.20352-10.14272a14.1568 14.1568 0 0 0-4.19328-10.07616 14.17216 14.17216 0 0 0-10.10688-4.19328z" fill="#1D1E21" p-id="1009"></path><path d="M171.04896 599.3216c0.73216 154.0608 100.19328 216.96 342.78912 216.96 243.49184 0 342.80448-63.35488 342.80448-218.65984 0-5.48864-0.16896-10.75712-0.41472-15.9232-58.99264 49.536-132.70528 80.86016-212.82816 91.68896-162.06336 19.44576-335.57504 15.872-472.35072-74.06592z" fill="#FFFFFF" p-id="1010"></path><path d="M513.83808 823.9616c-125.66016 0-210.24768-16.49152-266.19904-51.90144-56.32-35.64032-83.88608-92.12928-84.27008-172.70272a7.68 7.68 0 0 1 11.89888-6.4512c84.29568 55.42912 189.25568 82.3808 320.8704 82.3808 45.0816 0 92.94848-3.11296 146.35008-9.5232 79.23712-10.70592 151.48032-41.80992 208.80384-89.93792a7.66464 7.66464 0 0 1 12.60544 5.51424 336.3328 336.3328 0 0 1 0.41984 16.28672c0 81.21344-27.36128 138.14272-83.64544 174.04416-55.92064 35.67616-140.71296 52.29056-266.83392 52.29056z m-334.73024-210.432c6.80448 138.30656 105.14944 195.072 334.73024 195.072 238.03392 0 335.12448-61.12256 335.12448-210.97984v-0.19968c-57.45152 44.40576-127.8208 73.21088-204.52864 83.57376-54.12352 6.49728-102.59456 9.6512-148.29568 9.6512-128.4352 0-232.33024-25.24672-317.0304-77.11744z" fill="#1D1E21" p-id="1011"></path><path d="M455.59296 421.88288c-27.08992 26.67008-52.5312 58.51648-54.88128 68.56704a21.93408 21.93408 0 0 1-22.10304 21.0688 21.9392 21.9392 0 0 1-21.80096-22.144c0.22016-27.93984 42.65472-73.90208 67.97312-98.82624a21.96992 21.96992 0 0 1 31.0528 0.24064 21.94944 21.94944 0 0 1-0.24064 31.09376z" fill="#FFFFFF" p-id="1012"></path><path d="M378.78272 519.19872h-0.23552a29.44 29.44 0 0 1-20.90496-8.84224 29.47072 29.47072 0 0 1-8.51456-21.0432c0.22528-29.20448 38.33344-72.8064 70.26176-104.23808a29.4656 29.4656 0 0 1 20.79232-8.51456c8.00768 0 15.50848 3.13856 21.12 8.84224a29.3888 29.3888 0 0 1 8.54016 20.99712 29.46048 29.46048 0 0 1-8.86784 20.95104c-28.68736 28.24704-50.19136 56.80128-52.64384 64.3328a29.51168 29.51168 0 0 1-29.54752 27.51488z m61.40416-127.27296c-3.77344 0-7.33184 1.45408-10.01984 4.10112-41.59488 40.95488-65.536 74.99776-65.67936 93.4144-0.03072 3.82976 1.42336 7.43424 4.096 10.14784s6.25152 4.224 10.08128 4.25472l0.11776 7.68v-7.68a14.208 14.208 0 0 0 14.24896-13.68576c0.02048-0.49152 0.08704-0.9728 0.19968-1.44896 3.08224-13.17376 31.3856-47.104 56.97024-72.2944a14.22848 14.22848 0 0 0 4.28544-10.112 14.14656 14.14656 0 0 0-4.11648-10.10688 14.16192 14.16192 0 0 0-10.18368-4.27008z" fill="#1D1E21" p-id="1013"></path><path d="M535.6544 514.86208a21.9392 21.9392 0 0 1-21.94944 21.99552 21.9648 21.9648 0 0 1-21.99552-21.94944l-0.09216-81.73568a21.98528 21.98528 0 0 1 21.94944-21.99552 21.9648 21.9648 0 0 1 21.99552 21.94944l0.09216 81.73568z" fill="#FFFFFF" p-id="1014"></path><path d="M513.7152 544.5376h-0.0256a29.70112 29.70112 0 0 1-29.66016-29.6192l-0.09728-81.73568a29.696 29.696 0 0 1 29.6192-29.68576c16.36352 0 29.6704 13.2864 29.69088 29.6192l0.09216 81.73568a29.69088 29.69088 0 0 1-29.6192 29.68576z m-0.13312-125.68064a14.31552 14.31552 0 0 0-14.28992 14.3104l0.09728 81.73568a14.32064 14.32064 0 0 0 14.30016 14.27968v7.68l0.01024-7.68c3.82976-0.00512 7.41888-1.49504 10.10688-4.18816s4.16768-6.29248 4.16256-10.12224l-0.09216-81.7408a14.3104 14.3104 0 0 0-14.29504-14.27456z" fill="#1D1E21" p-id="1015"></path><path d="M647.82336 511.77472a21.9648 21.9648 0 0 1-21.95968-21.25312c-2.26304-10.10688-27.4432-42.12736-54.30272-69.02272a22.016 22.016 0 0 1 0.01536-31.09376 22.016 22.016 0 0 1 31.09376 0.02048c25.07264 25.13408 67.15904 71.4496 67.14368 99.38944a21.97504 21.97504 0 0 1-21.9904 21.95968z" fill="#FFFFFF" p-id="1016"></path><path d="M647.8336 519.45984h-0.02048a29.49632 29.49632 0 0 1-29.58848-27.76576c-2.37056-7.53664-23.6288-36.25984-52.10624-64.76288-11.53024-11.55072-11.52512-30.36672 0.01536-41.94304a29.47072 29.47072 0 0 1 20.96128-8.67328c7.92576 0 15.38048 3.08224 20.99712 8.6784 31.67744 31.75936 69.41696 75.71456 69.4016 104.832a29.70112 29.70112 0 0 1-29.66016 29.63456z m-60.73856-127.79008c-3.8144 0-7.3984 1.4848-10.09664 4.1728a14.35648 14.35648 0 0 0-0.01024 20.23424c25.39008 25.4208 53.42208 59.59168 56.36608 72.77568 0.10752 0.47104 0.16384 0.95744 0.1792 1.43872a14.21824 14.21824 0 0 0 14.28992 13.80864l0.01024 7.68v-7.68a14.31552 14.31552 0 0 0 14.29504-14.28992c0.01024-18.34496-23.64416-52.59264-64.90624-93.96224a14.25408 14.25408 0 0 0-10.12736-4.17792z" fill="#1D1E21" p-id="1017"></path><path d="M295.60832 289.14176m-21.51936 0a21.51936 21.51936 0 1 0 43.03872 0 21.51936 21.51936 0 1 0-43.03872 0Z" fill="#FFFFFF" p-id="1018"></path><path d="M295.60832 318.34624a29.2352 29.2352 0 0 1-29.20448-29.19936c0-16.1024 13.10208-29.20448 29.20448-29.20448s29.20448 13.10208 29.20448 29.20448a29.2352 29.2352 0 0 1-29.20448 29.19936z m0-43.04384c-7.63392 0-13.84448 6.21056-13.84448 13.84448s6.21056 13.83936 13.84448 13.83936 13.84448-6.20544 13.84448-13.83936-6.21056-13.84448-13.84448-13.84448z" fill="#1D1E21" p-id="1019"></path><path d="M71.99744 627.96288m-21.51936 0a21.51936 21.51936 0 1 0 43.03872 0 21.51936 21.51936 0 1 0-43.03872 0Z" fill="#FFFFFF" p-id="1020"></path><path d="M71.99744 657.16224c-16.1024 0-29.19936-13.10208-29.19936-29.19936s13.10208-29.19936 29.19936-29.19936c16.1024 0 29.20448 13.10208 29.20448 29.19936s-13.10208 29.19936-29.20448 29.19936z m0-43.04384c-7.63392 0-13.83936 6.21056-13.83936 13.83936s6.20544 13.83936 13.83936 13.83936 13.84448-6.21056 13.84448-13.83936-6.21056-13.83936-13.84448-13.83936z" fill="#1D1E21" p-id="1021"></path><path d="M877.22496 427.904m-21.51936 0a21.51936 21.51936 0 1 0 43.03872 0 21.51936 21.51936 0 1 0-43.03872 0Z" fill="#FFFFFF" p-id="1022"></path><path d="M877.22496 457.10336a29.2352 29.2352 0 0 1-29.20448-29.19936 29.2352 29.2352 0 0 1 29.20448-29.20448 29.2352 29.2352 0 0 1 29.19936 29.20448 29.23008 29.23008 0 0 1-29.19936 29.19936z m0-43.03872c-7.63392 0-13.84448 6.21056-13.84448 13.84448s6.21056 13.83936 13.84448 13.83936c7.6288 0 13.83936-6.20544 13.83936-13.83936s-6.21056-13.84448-13.83936-13.84448z" fill="#1D1E21" p-id="1023"></path><path d="M605.44 106.1888l43.45344 43.45344-43.45344 43.44832-43.44832-43.44832z" fill="#FFFFFF" p-id="1024"></path><path d="M605.44512 200.77568c-1.96608 0-3.93216-0.74752-5.43232-2.24768l-43.44832-43.44832a7.68 7.68 0 0 1 0-10.85952l43.44832-43.45344c2.88256-2.88256 7.98208-2.88256 10.85952 0l43.45344 43.45344a7.68 7.68 0 0 1 0 10.86464l-43.45344 43.44832a7.64928 7.64928 0 0 1-5.4272 2.24256z m-32.5888-51.12832l32.5888 32.5888 32.59392-32.5888-32.59392-32.59392-32.5888 32.59392z" fill="#1D1E21" p-id="1025"></path></svg>