<svg t="1607393461665" class="icon" viewBox="0 0 1024 1024" version="1.1" xmlns="http://www.w3.org/2000/svg" p-id="1857" width="50" height="50"><path d="M92.9 669.7c-7.2 0-14-4.4-16.8-11.5-5.1-13.1-9.6-26.6-13.5-40.2-2.7-9.6 2.8-19.5 12.4-22.3 9.6-2.7 19.5 2.8 22.3 12.4 3.6 12.5 7.8 25 12.4 37.1 3.6 9.3-1 19.7-10.3 23.3-2.2 0.9-4.4 1.2-6.5 1.2z" fill="" p-id="1858"></path><path d="M505.8 944c-86.2 0-165.4-20-235.4-59.4-66-37.2-121.5-91.5-160.6-157-5.1-8.5-2.3-19.6 6.2-24.7 8.5-5.1 19.6-2.3 24.7 6.2C216.2 835.5 349.3 908 505.8 908c240.8 0 417.2-170.5 425.7-408H80.2c0.5 12.7 1.5 25.3 2.9 37.7 1.2 9.9-5.9 18.8-15.7 20-9.9 1.2-18.8-5.9-20-15.8-2.3-19.7-3.5-39.8-3.5-59.9 0-9.9 8.1-18 18-18h888c9.9 0 18 8.1 18 18 0 125.2-45.3 241-127.6 326.1-41.4 42.8-90.6 76.3-146.2 99.5-58 24.2-121.3 36.4-188.3 36.4zM436.3 244.6c-8.2 0-15.6-5.6-17.5-13.9-2.3-9.7 3.7-19.4 13.4-21.6l458.1-107.6c9.7-2.3 19.4 3.7 21.6 13.4 2.3 9.7-3.7 19.4-13.4 21.6l-458 107.6c-1.4 0.4-2.8 0.5-4.2 0.5zM117.1 319.6c-8.2 0-15.6-5.6-17.5-13.9-2.3-9.7 3.7-19.4 13.4-21.6l86.6-20.3c9.7-2.3 19.4 3.7 21.6 13.4 2.3 9.7-3.7 19.4-13.4 21.6l-86.6 20.3c-1.3 0.3-2.7 0.5-4.1 0.5zM436.3 353.4c-8.2 0-15.6-5.6-17.5-13.9-2.3-9.7 3.7-19.4 13.4-21.6l458.1-107.6c9.7-2.3 19.4 3.7 21.6 13.4 2.3 9.7-3.7 19.4-13.4 21.6l-458 107.6c-1.4 0.4-2.8 0.5-4.2 0.5zM117.1 428.4c-8.2 0-15.6-5.6-17.5-13.9-2.3-9.7 3.7-19.4 13.4-21.6l82-19.3c9.7-2.3 19.4 3.7 21.6 13.4 2.3 9.7-3.7 19.4-13.4 21.6l-82 19.3c-1.3 0.3-2.7 0.5-4.1 0.5z" fill="" p-id="1859"></path><path d="M206.5 490.4c-9.9 0-18-8.1-18-18V264.1c0-30.1 20.8-56.2 33.2-69.1 14.6-15.1 36.9-32 55.8-34.1 9.9-1.1 18.8 6 19.9 15.9 1.1 9.9-6 18.8-15.9 19.9-4.4 0.5-18.9 7.8-33.8 23.3-14.5 15-23.1 31.5-23.1 44.1v208.3c-0.1 10-8.1 18-18.1 18zM318 493.7c-9.9 0-18-8.1-18-18V234.6c0-30.1 20.8-56.2 33.2-69.1 14.6-15.1 36.9-32 55.8-34.1 9.9-1.1 18.8 6 19.9 15.9 1.1 9.9-6 18.8-15.9 19.9-4.4 0.5-18.9 7.8-33.8 23.3-14.5 15-23.1 31.5-23.1 44.1v241.1c-0.1 9.9-8.1 18-18.1 18zM429.6 480.6c-9.9 0-18-8.1-18-18V221.5c0-30.1 20.8-56.2 33.2-69.1 14.6-15.1 36.9-32 55.8-34.1 9.9-1.1 18.8 6 19.9 15.9 1.1 9.9-6 18.8-15.9 19.9-4.4 0.5-18.9 7.8-33.8 23.3-14.5 15-23.1 31.5-23.1 44.1v241.1c-0.1 9.9-8.2 18-18.1 18z" fill="" p-id="1860"></path></svg>