<svg t="1607393544717" class="icon" viewBox="0 0 1024 1024" version="1.1" xmlns="http://www.w3.org/2000/svg" p-id="2273" width="50" height="50"><path d="M797.7 488.7c-25.6 58.3-56.9 107-93.8 146.2-35.8 38-168.4 60.4-398 67.1-0.8 0-1.4 0.7-1.4 1.5 0 0.5 0.3 1 0.8 1.3 308.7 19.5 471.5 17.6 493.4-3.3 15.4-14.6 30.7-66.6 30.7-89V498.3c0-24.1-9.6-28.6-28.7-13.5-1.3 1-2.3 2.3-3 3.9z" fill="#FFD800" p-id="2274"></path><path d="M310.5 716.8v16.4c0 22.6 18.3 41 41 41H681c20.5 0 37.8-15.1 40.6-35.4l3-21.9" fill="#FFD800" p-id="2275"></path><path d="M816.5 501.9l-0.1-1.7c-0.9-16.9-15.6-29.9-32.3-29-26.5 1.4-52 7.6-75.7 18.2-27.5 12.4-54.7 31.7-80.7 57.5-45.9-103.8-123.9-154.2-232-149.7C283.9 401.8 213 451 184.8 543.3c-0.7 2.4-0.6 5 0.5 7.3l21.7 46.8c-4.9 3-8.9 7.2-11.5 12.4-3.7 7.3-4.3 15.7-1.7 23.4l8.4 25.3c11.8 35.5 44.8 59.3 82.2 59.3h16.3c2.6 25.9 24.2 46.2 50.7 46.2H663c26.5 0 48.1-20.3 50.7-46.2H727c36.6 0 68.6-24.7 78-60l10.4-39.5c0.2-0.6 0.2-1.3 0.3-2 0.5-1.2 0.8-2.4 0.8-3.8V501.9z m-446.7-82.1v172.9l-142.4 0.1-21.9-47.2c24-74.5 78-115.8 164.3-125.8zM663 743.5H351.4c-15.2 0-27.8-11.2-30.2-25.7h372c-2.4 14.5-15 25.7-30.2 25.7z m122.2-91c-7 26.4-30.9 44.8-58.2 44.8H284.4c-28.5 0-53.7-18.2-62.7-45.2l-8.4-25.3c-0.9-2.6-0.7-5.4 0.6-7.8 1.2-2.5 3.3-4.3 5.9-5.1 1-0.3 2.1-0.5 3.3-0.5l572.7-0.3-10.6 39.4z m10.4-60.1l-405.4 0.2V418c2.1-0.1 4.1-0.3 6.2-0.4 103.7-4.2 174.5 44 216.7 147.6 1.6 3.9 5.3 6.4 9.5 6.4h5.2c2.8 0 5.5-1.1 7.4-3.2 26.4-27.6 53.8-47.9 81.5-60.3 21.4-9.6 44.5-15.2 68.4-16.5 5.3-0.3 10.5 4 10.8 10.2v90.6h-0.3c0.1 0 0.1 0 0 0zM409.6 345.5c3 0 6-1.4 8.1-3.9 28.1-35.9 32.5-70.1 13.1-101.5-7.1-11.5-9.6-21.1-7.4-28.5 2-6.9 8.5-12.9 19.1-18 5.1-2.4 7.3-8.5 4.8-13.6-2.4-5.1-8.6-7.3-13.6-4.8-16.2 7.7-26.2 18.1-30 30.7-3.9 13.2-0.6 28.4 9.7 45 14.7 23.7 10.8 49.3-11.8 78.1-3.5 4.5-2.7 10.9 1.8 14.4 1.8 1.4 4 2.1 6.2 2.1zM491.5 345.5c3 0 6-1.4 8.1-3.9 28.1-35.9 32.5-70.1 13.1-101.5-7.1-11.5-9.6-21.1-7.4-28.5 2-6.9 8.5-12.9 19.1-18 5.1-2.4 7.3-8.5 4.8-13.6-2.4-5.1-8.6-7.3-13.6-4.8-16.2 7.7-26.2 18.1-30 30.7-3.9 13.2-0.6 28.4 9.7 45 14.7 23.7 10.8 49.3-11.8 78.1-3.5 4.5-2.7 10.9 1.8 14.4 1.8 1.4 4 2.1 6.2 2.1zM573.4 345.5c3 0 6-1.4 8.1-3.9 28.1-35.9 32.5-70.1 13.1-101.5-7.1-11.5-9.6-21.1-7.4-28.5 2-6.9 8.5-12.9 19.1-18 5.1-2.4 7.3-8.5 4.8-13.6-2.4-5.1-8.6-7.3-13.7-4.8-16.1 7.7-26.2 18.1-30 30.7-3.9 13.2-0.6 28.4 9.6 45 14.7 23.7 10.8 49.3-11.8 78.1-3.5 4.5-2.7 10.9 1.8 14.4 2 1.4 4.2 2.1 6.4 2.1z" fill="#444444" p-id="2276"></path><path d="M298.9 533.4m-23.2 0a23.2 23.2 0 1 0 46.4 0 23.2 23.2 0 1 0-46.4 0Z" fill="#444444" p-id="2277"></path></svg>